<svg width="64" height="64" viewBox="0 0 64 64" fill="none" xmlns="http://www.w3.org/2000/svg">
  <rect width="64" height="64" rx="12" fill="#3B82F6"/>
  <path d="M16 20H48C49.1046 20 50 20.8954 50 22V26C50 27.1046 49.1046 28 48 28H16C14.8954 28 14 27.1046 14 26V22C14 20.8954 14.8954 20 16 20Z" fill="white"/>
  <path d="M16 30H48C49.1046 30 50 30.8954 50 32V36C50 37.1046 49.1046 38 48 38H16C14.8954 38 14 37.1046 14 36V32C14 30.8954 14.8954 30 16 30Z" fill="white"/>
  <path d="M16 40H48C49.1046 40 50 40.8954 50 42V46C50 47.1046 49.1046 48 48 48H16C14.8954 48 14 47.1046 14 46V42C14 40.8954 14.8954 40 16 40Z" fill="white"/>
  <circle cx="20" cy="24" r="2" fill="#3B82F6"/>
  <circle cx="20" cy="34" r="2" fill="#3B82F6"/>
  <circle cx="20" cy="44" r="2" fill="#3B82F6"/>
  <path d="M26 22H44V26H26V22Z" fill="#E5E7EB"/>
  <path d="M26 32H44V36H26V32Z" fill="#E5E7EB"/>
  <path d="M26 42H44V46H26V42Z" fill="#E5E7EB"/>
</svg>